<svg width="615" height="1502" viewBox="0 0 615 1502" fill="none" xmlns="http://www.w3.org/2000/svg">
<g clip-path="url(#clip0)">
<path d="M264.9 194.9L133.9 611.9L412.9 660.9L560.9 513.9L355.9 180.9L264.9 194.9Z" fill="white"/>
<path d="M211.4 589.7L303.5 238.6H250.4L95.3999 562.3L211.4 589.7Z" fill="#E0E0E0"/>
<path d="M514 1117.5H99.8V558.9L215.2 589.7L295.3 579.8L378 588.6L514 558.9V1117.5Z" fill="#EEC12B"/>
<path d="M378 588.6V1095.9H515.2L515.4 551L378 588.6Z" fill="#EDD62C"/>
<path d="M99.8 558.9L215.2 589.7V1095.9H99.2L99.8 558.9Z" fill="#EDAC29"/>
<path d="M523.4 1095.9L513.4 1224.4C513.4 1224.4 496.1 1397.2 307.2 1402.4C118.3 1407.6 100.3 1226.1 100.3 1226.1L91 1095.8H523.4V1095.9Z" fill="#9E1C27"/>
<path d="M564.8 1028.5C537.4 1028.5 515.3 1050.6 515.3 1077.9V1096.2C515.3 1132.6 516.4 1169.2 515.1 1205.6C515 1209.1 514.7 1212.6 514.5 1216C514.4 1217.8 513.9 1221.9 513.6 1224.4C512.7 1229.9 511.5 1235.5 510.2 1240.9C508.5 1248.3 506.3 1255.6 503.9 1262.8C502.6 1266.8 501.1 1270.7 499.6 1274.6C499.5 1274.8 499.5 1274.9 499.4 1275.1C499.2 1275.5 499 1276 498.7 1276.7C492.4 1290.6 484.6 1303.8 475.9 1316.3C474.8 1317.8 472.9 1320.3 471.8 1321.8C470.3 1323.6 468.5 1325.9 467.6 1327C462.3 1333.3 456.5 1339.2 450.6 1344.9C445.3 1350 439.8 1354.8 434.1 1359.5C430.8 1362 427.4 1364.3 424 1366.6C417.8 1370.7 411.4 1374.5 404.8 1378.1C401.2 1380.1 397.4 1382 393.7 1383.8C392.1 1384.6 388.1 1386.3 385.9 1387.3C372.9 1392.3 359.5 1396.1 345.8 1399C342.4 1399.7 339.1 1400.3 335.7 1400.9C335.6 1400.9 335.5 1400.9 335.4 1401C334.7 1401.1 334 1401.2 333.5 1401.2C324.8 1402.1 316 1402.5 307.3 1402.5C298.6 1402.5 290 1402 281.4 1401.2C280.2 1401.1 278.9 1400.9 277.7 1400.7C276.4 1400.5 275.1 1400.3 273.8 1400C267.9 1398.9 262.1 1397.6 256.3 1396.1C247 1393.7 237.9 1390.7 228.9 1387.4C227.9 1387 226.9 1386.6 226 1386.2C225 1385.8 224.1 1385.3 223.1 1384.9C217.8 1382.4 212.7 1379.7 207.6 1376.9C198.9 1372.1 190.5 1366.7 182.4 1360.9C181.8 1360.5 181.2 1360 180.5 1359.5C179.8 1359 179.1 1358.4 178.6 1358C174.1 1354.4 169.8 1350.5 165.6 1346.6C158.4 1339.9 151.6 1332.6 145.2 1325.1C144.1 1323.8 143.1 1322.5 142 1321.2C138.6 1316.6 135.5 1311.9 132.4 1307.2C127 1298.8 122.2 1290.1 117.8 1281.2C116.9 1279.3 116 1277.3 115.1 1275.3C113.2 1270.4 111.4 1265.4 109.7 1260.4C106.5 1250.8 104.1 1240.9 102.1 1230.9C101.7 1229.1 101.1 1224.7 100.6 1221.7C100.4 1220.6 100.3 1219.5 100.2 1218.4C99.9 1215 99.7 1211.6 99.5 1208.2C98.8 1195.4 99.2 1182.5 99.2 1169.7V1078C99.2 1050.7 77 1028.6 49.7 1028.6C22.3 1028.6 0.199951 1050.7 0.199951 1078V1182.6C0.199951 1251.8 17.3999 1319.5 59.7999 1375.4C118.6 1453 208.8 1501.3 307.2 1501.3C357.3 1501 405.8 1488.6 450.3 1465.8C493.5 1443.6 528.9 1410.1 557.6 1371.5C598.9 1315.9 614.2 1248.3 614.2 1180.2V1078C614.3 1050.7 592.1 1028.5 564.8 1028.5ZM142.5 1321.6C149.5 1330.5 144.4 1324.3 142.5 1321.6V1321.6ZM225 1385.8C222.2 1384.7 219.5 1383.5 225 1385.8V1385.8ZM337.7 1400.6C341 1400.1 339.8 1400.3 337.7 1400.6V1400.6Z" fill="#191919"/>
<path d="M91.5 578.2L261.3 225.1C278.7 189 330.1 188.7 347.8 224.7L521.7 578.5C529.8 594.9 546.5 605.4 564.8 605.4C600.7 605.4 624 567.4 607.6 535.4L347.3 26.2C329.4 -8.8 279.3 -8.70001 261.6 26.5L5.00002 535.8C-10.6 562.1 12.1 605.5 47.9 605.5H48.1C66.6 605.5 83.5 594.9 91.5 578.2Z" fill="#191919"/>
<path d="M235.4 240H370.8L304.4 107.2L235.4 240Z" fill="#191919"/>
<path d="M0.199951 551V628.2V639V1068.9C0.199951 1096.2 22.3 1118.4 49.7 1118.4C77 1118.4 99.2 1096.3 99.2 1068.9V639V628.2V562.3L0.199951 551Z" fill="#191919"/>
<path d="M613.9 622L613 557L515.4 565.7V628.1V649.4V1068.8C515.4 1096.1 537.5 1118.3 564.9 1118.3C592.2 1118.3 614.4 1096.2 614.4 1068.8V628.2C614.3 626.1 614.2 624.1 613.9 622Z" fill="#191919"/>
<path d="M215.2 1095.9C215.2 1095.9 193.8 1369 307.3 1402.5C307.3 1402.5 187.8 1414.9 110.9 1274.8C110.9 1274.8 88.6001 1232.3 99.2001 1096H215.2V1095.9Z" fill="#891820"/>
</g>
<defs>
<clipPath id="clip0">
<rect width="614.3" height="1501.3" fill="white"/>
</clipPath>
</defs>
</svg>

